<?xml version="1.0" standalone="no"?><!DOCTYPE svg PUBLIC "-//W3C//DTD SVG 1.1//EN" "http://www.w3.org/Graphics/SVG/1.1/DTD/svg11.dtd">
<svg class="tj-logo-wordmark-only" viewBox="0 0 518 87" style="display:none;height:auto;width:auto;perspective-origin:50% 50%;transform-origin:0px 0px;fill:rgb(0, 66, 74);" version="1.1" xmlns:xlink="http://www.w3.org/1999/xlink" xmlns="http://www.w3.org/2000/svg">
    <!-- wordmark only -->
    <path class="tj-logo-full-trademark" d="M510,14.8 C506,14.8 502.8,11.5 502.8,7.5 C502.8,3.5 506,0.2 510,0.2 C514.1,0.2 517.3,3.4 517.3,7.5 C517.3,9.5 516.6,11.3 515.2,12.6 C513.8,14 511.9,14.8 510,14.8 L510,14.8 L510,14.8 Z M510,1.9 C506.9,1.9 504.4,4.4 504.4,7.5 C504.4,10.5 506.9,13.1 510,13.1 C513.1,13.1 515.6,10.7 515.6,7.6 C515.6,6.1 515,4.7 514,3.7 C512.9,2.5 511.5,1.9 510,1.9 L510,1.9 L510,1.9 Z M513.3,10.9 L511.4,10.9 L510.1,8.2 L509.3,8.2 L509.3,10.9 L507.6,10.9 L507.6,3.9 L510.3,3.9 C512.1,3.9 513.3,4.5 513.3,6 C513.3,6.9 512.8,7.6 512,7.9 L513.3,10.9 L513.3,10.9 Z M509.2,5.3 L509.2,6.8 L510,6.8 C511.2,6.8 511.4,6.6 511.4,6.1 C511.4,5.6 511.2,5.3 510,5.3 L509.2,5.3 L509.2,5.3 Z" style="height:auto;overflow-x:visible;overflow-y:visible;width:auto;perspective-origin:50% 50%;transform-origin:0px 0px;fill:rgb(0, 66, 74);d:path('M 510 14.8 C 506 14.8 502.8 11.5 502.8 7.5 C 502.8 3.5 506 0.2 510 0.2 C 514.1 0.2 517.3 3.4 517.3 7.5 C 517.3 9.5 516.6 11.3 515.2 12.6 C 513.8 14 511.9 14.8 510 14.8 L 510 14.8 L 510 14.8 Z M 510 1.9 C 506.9 1.9 504.4 4.4 504.4 7.5 C 504.4 10.5 506.9 13.1 510 13.1 C 513.1 13.1 515.6 10.7 515.6 7.6 C 515.6 6.1 515 4.7 514 3.7 C 512.9 2.5 511.5 1.9 510 1.9 L 510 1.9 L 510 1.9 Z M 513.3 10.9 L 511.4 10.9 L 510.1 8.2 L 509.3 8.2 L 509.3 10.9 L 507.6 10.9 L 507.6 3.9 L 510.3 3.9 C 512.1 3.9 513.3 4.5 513.3 6 C 513.3 6.9 512.8 7.6 512 7.9 L 513.3 10.9 L 513.3 10.9 Z M 509.2 5.3 L 509.2 6.8 L 510 6.8 C 511.2 6.8 511.4 6.6 511.4 6.1 C 511.4 5.6 511.2 5.3 510 5.3 L 509.2 5.3 L 509.2 5.3 Z');"/>
    <g class="tj-logo-no-icon-wordmark" style="height:auto;overflow-x:visible;overflow-y:visible;width:auto;perspective-origin:50% 50%;transform-origin:0px 0px;fill:rgb(0, 66, 74);">
        <path d="M47,0.2 L0.4,0.2 L0.4,12.8 L16.5,12.8 L16.5,66.9 L30.8,66.9 L30.8,12.8 L47,12.8 L47,0.2 Z" style="height:auto;overflow-x:visible;overflow-y:visible;width:auto;perspective-origin:50% 50%;transform-origin:0px 0px;fill:rgb(0, 66, 74);d:path('M 47 0.2 L 0.4 0.2 L 0.4 12.8 L 16.5 12.8 L 16.5 66.9 L 30.8 66.9 L 30.8 12.8 L 47 12.8 L 47 0.2 Z');"/>
        <path d="M63.4,13.5 C48.4,13.5 36.3,25.8 36.3,40.9 C36.3,56 48.4,68.3 63.4,68.3 C78.4,68.3 90.5,56 90.5,40.9 C90.5,25.8 78.4,13.5 63.4,13.5 L63.4,13.5 Z M63.4,55.8 C55.4,55.8 48.9,49.2 48.9,41 C48.9,32.8 55.4,26.2 63.4,26.2 C71.4,26.2 77.9,32.8 77.9,41 C77.9,49.1 71.4,55.8 63.4,55.8 L63.4,55.8 Z" style="height:auto;overflow-x:visible;overflow-y:visible;width:auto;perspective-origin:50% 50%;transform-origin:0px 0px;fill:rgb(0, 66, 74);d:path('M 63.4 13.5 C 48.4 13.5 36.3 25.8 36.3 40.9 C 36.3 56 48.4 68.3 63.4 68.3 C 78.4 68.3 90.5 56 90.5 40.9 C 90.5 25.8 78.4 13.5 63.4 13.5 L 63.4 13.5 Z M 63.4 55.8 C 55.4 55.8 48.9 49.2 48.9 41 C 48.9 32.8 55.4 26.2 63.4 26.2 C 71.4 26.2 77.9 32.8 77.9 41 C 77.9 49.1 71.4 55.8 63.4 55.8 L 63.4 55.8 Z');"/>
        <path d="M162,18.3 C158.6,15.1 154.2,13.5 149.4,13.5 C143.1,13.5 136.9,17.2 134.4,22.4 C132.2,17.7 127.7,13.5 119.4,13.5 C112.6,13.5 108,17.6 106.7,20.2 L106.6,20.2 L106.6,15.1 L94,15.1 L94,67 L107,67 L107,37.4 C107,31.7 109.1,25.9 116,25.9 C122.5,25.9 124.4,31.2 124.4,36.2 L124.4,67 L137.7,67 L137.7,36.7 C137.7,29.3 142.3,25.9 146.5,25.9 C151.9,25.9 155,29.7 155,36.3 L155,67.1 L168.2,67.1 L168.2,34.7 C168.2,26.2 165.2,21.2 162,18.3 L162,18.3 Z" style="height:auto;overflow-x:visible;overflow-y:visible;width:auto;perspective-origin:50% 50%;transform-origin:0px 0px;fill:rgb(0, 66, 74);d:path('M 162 18.3 C 158.6 15.1 154.2 13.5 149.4 13.5 C 143.1 13.5 136.9 17.2 134.4 22.4 C 132.2 17.7 127.7 13.5 119.4 13.5 C 112.6 13.5 108 17.6 106.7 20.2 L 106.6 20.2 L 106.6 15.1 L 94 15.1 L 94 67 L 107 67 L 107 37.4 C 107 31.7 109.1 25.9 116 25.9 C 122.5 25.9 124.4 31.2 124.4 36.2 L 124.4 67 L 137.7 67 L 137.7 36.7 C 137.7 29.3 142.3 25.9 146.5 25.9 C 151.9 25.9 155 29.7 155 36.3 L 155 67.1 L 168.2 67.1 L 168.2 34.7 C 168.2 26.2 165.2 21.2 162 18.3 L 162 18.3 Z');"/>
        <path d="M240.7,18.3 C237.3,15.1 232.9,13.5 228.1,13.5 C221.8,13.5 215.6,17.2 213.1,22.4 C210.9,17.7 206.4,13.5 198.1,13.5 C191.3,13.5 186.7,17.6 185.4,20.2 L185.3,20.2 L185.3,15.1 L172.6,15.1 L172.6,67 L185.7,67 L185.7,37.4 C185.7,31.7 187.8,25.9 194.7,25.9 C201.2,25.9 203.1,31.2 203.1,36.2 L203.1,67 L216.4,67 L216.4,36.7 C216.4,29.3 221,25.9 225.2,25.9 C230.6,25.9 233.7,29.7 233.7,36.3 L233.7,67.1 L246.9,67.1 L246.9,34.7 C246.9,26.2 243.8,21.2 240.7,18.3 L240.7,18.3 Z" style="height:auto;overflow-x:visible;overflow-y:visible;width:auto;perspective-origin:50% 50%;transform-origin:0px 0px;fill:rgb(0, 66, 74);d:path('M 240.7 18.3 C 237.3 15.1 232.9 13.5 228.1 13.5 C 221.8 13.5 215.6 17.2 213.1 22.4 C 210.9 17.7 206.4 13.5 198.1 13.5 C 191.3 13.5 186.7 17.6 185.4 20.2 L 185.3 20.2 L 185.3 15.1 L 172.6 15.1 L 172.6 67 L 185.7 67 L 185.7 37.4 C 185.7 31.7 187.8 25.9 194.7 25.9 C 201.2 25.9 203.1 31.2 203.1 36.2 L 203.1 67 L 216.4 67 L 216.4 36.7 C 216.4 29.3 221 25.9 225.2 25.9 C 230.6 25.9 233.7 29.7 233.7 36.3 L 233.7 67.1 L 246.9 67.1 L 246.9 34.7 C 246.9 26.2 243.8 21.2 240.7 18.3 L 240.7 18.3 Z');"/>
        <path d="M273.1,48.9 L260.6,15.1 L246,15.1 L265.6,66.2 L265.8,66.9 L258.7,86.5 L272.4,86.5 L298.6,15.1 L284.7,15.1 L273.1,48.9 Z" style="height:auto;overflow-x:visible;overflow-y:visible;width:auto;perspective-origin:50% 50%;transform-origin:0px 0px;fill:rgb(0, 66, 74);d:path('M 273.1 48.9 L 260.6 15.1 L 246 15.1 L 265.6 66.2 L 265.8 66.9 L 258.7 86.5 L 272.4 86.5 L 298.6 15.1 L 284.7 15.1 L 273.1 48.9 Z');"/>
        <path d="M334.1,0.2 L334.1,43.7 C334.1,50.4 332.5,54.6 327,54.6 C323.6,54.6 321,53 318.1,50.6 L313.7,63 C316.9,65.8 322.8,68.4 328.2,68.4 C340.9,68.4 348.1,58.9 348.1,45.2 L348.1,0.3 L334.1,0.3 L334.1,0.2 Z" style="height:auto;overflow-x:visible;overflow-y:visible;width:auto;perspective-origin:50% 50%;transform-origin:0px 0px;fill:rgb(0, 66, 74);d:path('M 334.1 0.2 L 334.1 43.7 C 334.1 50.4 332.5 54.6 327 54.6 C 323.6 54.6 321 53 318.1 50.6 L 313.7 63 C 316.9 65.8 322.8 68.4 328.2 68.4 C 340.9 68.4 348.1 58.9 348.1 45.2 L 348.1 0.3 L 334.1 0.3 L 334.1 0.2 Z');"/>
        <path d="M379,13.5 C364,13.5 351.9,25.8 351.9,40.9 C351.9,56 364,68.3 379,68.3 C394,68.3 406.1,56 406.1,40.9 C406.1,25.8 394,13.5 379,13.5 L379,13.5 Z M379,55.8 C371,55.8 364.5,49.2 364.5,41 C364.5,32.8 371,26.2 379,26.2 C387,26.2 393.5,32.8 393.5,41 C393.5,49.1 387,55.8 379,55.8 L379,55.8 Z" style="height:auto;overflow-x:visible;overflow-y:visible;width:auto;perspective-origin:50% 50%;transform-origin:0px 0px;fill:rgb(0, 66, 74);d:path('M 379 13.5 C 364 13.5 351.9 25.8 351.9 40.9 C 351.9 56 364 68.3 379 68.3 C 394 68.3 406.1 56 406.1 40.9 C 406.1 25.8 394 13.5 379 13.5 L 379 13.5 Z M 379 55.8 C 371 55.8 364.5 49.2 364.5 41 C 364.5 32.8 371 26.2 379 26.2 C 387 26.2 393.5 32.8 393.5 41 C 393.5 49.1 387 55.8 379 55.8 L 379 55.8 Z');"/>
        <path d="M435.1,13.5 C430.1,13.5 424.9,16.3 422.7,20 L422.6,20 L422.6,0.2 L409.6,0.2 L409.6,66.9 L422.7,66.9 L422.7,38 C422.7,28.4 429,25.8 432.4,25.8 C436,25.8 442.2,27.4 442.2,38 L442.2,66.9 L455.5,66.9 L455.5,35.7 C455.3,20.5 444.8,13.5 435.1,13.5 L435.1,13.5 Z" style="height:auto;overflow-x:visible;overflow-y:visible;width:auto;perspective-origin:50% 50%;transform-origin:0px 0px;fill:rgb(0, 66, 74);d:path('M 435.1 13.5 C 430.1 13.5 424.9 16.3 422.7 20 L 422.6 20 L 422.6 0.2 L 409.6 0.2 L 409.6 66.9 L 422.7 66.9 L 422.7 38 C 422.7 28.4 429 25.8 432.4 25.8 C 436 25.8 442.2 27.4 442.2 38 L 442.2 66.9 L 455.5 66.9 L 455.5 35.7 C 455.3 20.5 444.8 13.5 435.1 13.5 L 435.1 13.5 Z');"/>
        <path d="M485.3,13.5 C480.4,13.5 474.7,16.2 472.5,20.2 L472.4,20.2 L472.4,15.1 L459.7,15.1 L459.7,67 L472.8,67 L472.8,38 C472.8,28.4 479.1,25.8 482.5,25.8 C486.1,25.8 492.3,27.4 492.3,38 L492.3,66.9 L505.6,66.9 L505.6,35.7 C505.5,20.5 495,13.5 485.3,13.5 L485.3,13.5 Z" style="height:auto;overflow-x:visible;overflow-y:visible;width:auto;perspective-origin:50% 50%;transform-origin:0px 0px;fill:rgb(0, 66, 74);d:path('M 485.3 13.5 C 480.4 13.5 474.7 16.2 472.5 20.2 L 472.4 20.2 L 472.4 15.1 L 459.7 15.1 L 459.7 67 L 472.8 67 L 472.8 38 C 472.8 28.4 479.1 25.8 482.5 25.8 C 486.1 25.8 492.3 27.4 492.3 38 L 492.3 66.9 L 505.6 66.9 L 505.6 35.7 C 505.5 20.5 495 13.5 485.3 13.5 L 485.3 13.5 Z');"/>
      </g>
  </svg>